<?xml version="1.0" encoding="UTF-8"?>
<svg id="Capa_2" data-name="Capa 2" xmlns="http://www.w3.org/2000/svg" viewBox="0 0 125.67 90.09">
  <defs>
    <style>
      .cls-1 { fill: #68150A; }
      @media (prefers-color-scheme: dark) {
        .cls-1 { fill: #e8e5df; }
      }
    </style>
  </defs>
  <g id="Capa_de_Información_de_muestra" data-name="Capa de Información de muestra">
    <g>
      <polygon class="cls-1" points="111.37 43.16 125.67 44.66 111.37 46.16 111.37 43.16 111.37 43.16"/>
      <polygon class="cls-1" points="14.3 46.16 0 44.66 14.3 43.16 14.3 46.16 14.3 46.16"/>
      <g>
        <g>
          <g>
            <path class="cls-1" d="M74.42,61.97c7.22,11.89,2.25,28.24-11.72,28.11-14.02.13-18.98-16.23-11.76-28.11l4.38,1.46c-10.72,3.42-8.26,22.94,7.38,23.53,15.6-.58,18.06-20.11,7.34-23.53l4.38-1.46Z"/>
            <path class="cls-1" d="M68.5,51.1c-3.25,0-4.25,1.29-4.25,2.63h-.58v-8.05h.58c0,1.33,1,2.63,4.25,2.63h6.51c6.34,11.8,1.29,27.2-12.31,27.11-14.02.08-18.98-16.23-11.76-28.16l4.38,1.5c-10.72,3.42-8.26,22.94,7.38,23.48,13.39-.46,17.1-14.89,11.14-21.15h-5.34Z"/>
          </g>
          <g>
            <path class="cls-1" d="M51.73,28.12C44.52,16.23,49.48-.12,63.45,0c14.02-.13,18.98,16.23,11.76,28.11l-4.38-1.46c10.72-3.42,8.26-22.94-7.38-23.53-15.6.58-18.06,20.11-7.34,23.53l-4.38,1.46Z"/>
            <path class="cls-1" d="M57.66,38.99c3.25,0,4.25-1.29,4.25-2.63h.58s0,8.05,0,8.05h-.58c0-1.33-1-2.63-4.25-2.63h-6.51c-6.34-11.8-1.29-27.2,12.31-27.11,14.02-.08,18.98,16.23,11.76,28.16l-4.38-1.5c10.72-3.42,8.26-22.94-7.38-23.48-13.39.46-17.1,14.89-11.14,21.15h5.34Z"/>
          </g>
        </g>
        <g>
          <g>
            <path class="cls-1" d="M46.2,56.44c-11.89,7.22-28.24,2.25-28.11-11.72-.13-14.02,16.23-18.98,28.11-11.76l-1.46,4.38c-3.42-10.72-22.94-8.26-23.53,7.38.58,15.6,20.11,18.06,23.53,7.34l1.46,4.38Z"/>
            <path class="cls-1" d="M57.07,50.51c0-3.25-1.29-4.25-2.63-4.25v-.58h8.05v.58c-1.33,0-2.63,1-2.63,4.25v6.51c-11.8,6.34-27.2,1.29-27.11-12.31-.08-14.02,16.23-18.98,28.16-11.76l-1.5,4.38c-3.42-10.72-22.94-8.26-23.48,7.38.46,13.39,14.89,17.1,21.15,11.14v-5.34Z"/>
          </g>
          <g>
            <path class="cls-1" d="M81.42,52.76c3.42,10.72,22.94,8.26,23.53-7.34-.58-15.64-20.11-18.1-23.53-7.38l-1.46-4.38c11.89-7.22,28.24-2.25,28.11,11.76.13,13.97-16.23,18.94-28.11,11.72l1.46-4.38Z"/>
            <path class="cls-1" d="M69.08,39.58c0,3.25,1.29,4.25,2.63,4.25v.58s-8.05,0-8.05,0v-.58c1.33,0,2.63-1,2.63-4.25v-6.51c11.8-6.34,27.2-1.29,27.11,12.31.08,14.02-16.23,18.98-28.16,11.76l1.5-4.38c3.42,10.72,22.94,8.26,23.48-7.38-.46-13.39-14.89-17.1-21.15-11.14v5.34Z"/>
          </g>
        </g>
      </g>
    </g>
  </g>
</svg>
