<svg viewBox="0 0 34 32" fill="none" xmlns="http://www.w3.org/2000/svg">
<g clip-path="url(#clip0_336_12)">
<path d="M24.6165 22.8017C24.792 23.1683 24.9561 23.5149 25.0297 23.9187C25.4784 26.3767 23.3033 28.4228 20.8112 27.9112C18.5077 27.4383 17.3375 24.7767 18.5633 22.802H9.68226C11.1224 25.1393 9.2756 28.1359 6.49232 27.9952C2.99599 27.8185 1.89684 23.2415 4.94562 21.5624C5.58903 21.2079 6.21467 21.1702 6.91324 21.0176C13.0244 21.0265 19.1348 21.0524 25.2475 21.04L25.2349 20.9725C24.7719 20.0388 24.0843 19.1149 23.6456 18.1812C23.4381 17.7392 23.5751 17.4353 23.6697 16.9901C24.3952 13.5756 25.2562 10.186 25.9947 6.77392L26.0933 6.57304C27.5755 5.04629 29.1178 3.56919 30.6243 2.06302C30.6643 1.9953 30.6119 1.6171 30.6222 1.48898C30.7381 0.057631 32.6291 -0.528772 33.5917 0.574023C34.6374 1.772 33.5226 3.59001 31.9614 3.26855C30.531 4.63674 29.1353 6.06374 27.7129 7.44933L27.6611 7.53581L25.3875 17.5747L25.4221 17.6781C26.0777 18.9168 26.8835 20.1241 27.5187 21.3681C27.7101 21.7431 27.7919 22.0261 27.5479 22.4112C27.4467 22.5707 27.1343 22.802 26.9422 22.802H24.6167L24.6165 22.8017ZM8.37604 24.558C8.37604 23.6346 7.61134 22.8862 6.66831 22.8862C5.72528 22.8862 4.96057 23.6348 4.96057 24.558C4.96057 25.4812 5.72528 26.2298 6.66831 26.2298C7.61134 26.2298 8.37604 25.4812 8.37604 24.558ZM23.2881 24.5589C23.2881 23.6357 22.5236 22.8873 21.5806 22.8873C20.6375 22.8873 19.8731 23.6357 19.8731 24.5589C19.8731 25.4821 20.6375 26.2305 21.5806 26.2305C22.5236 26.2305 23.2881 25.4821 23.2881 24.5589Z" fill="currentColor"/>
<path d="M2.27383 7.93L6.14481 16.8501L21.8012 16.8523C22.8873 17.0006 22.8716 18.496 21.7767 18.6145L5.50958 18.6159C5.16322 18.6001 4.85425 18.4033 4.70771 18.0968L0.0587093 7.3873C-0.152567 6.77412 0.225814 6.21243 0.882078 6.16736L24.2542 6.1685C25.1208 6.25041 25.3999 7.35298 24.6616 7.80233C24.6048 7.83688 24.4027 7.93 24.348 7.93H2.27383Z" fill="currentColor"/>
</g>
</defs>
</svg>
