<svg width="21" height="21" viewBox="0 0 21 21" fill="none" xmlns="http://www.w3.org/2000/svg">
<path fill-rule="evenodd" clip-rule="evenodd" d="M20.5425 18.0907L15.2594 12.8075C14.954 12.5021 14.5518 12.3495 14.1502 12.3495C13.9645 12.3495 13.7793 12.3825 13.6033 12.4474L12.9066 11.7507C13.924 10.4746 14.4823 8.89323 14.4823 7.24116C14.4823 5.31452 13.7235 3.483 12.3614 2.12091C10.9988 0.75881 9.16724 0 7.24059 0C5.31395 0 3.483 0.75881 2.12091 2.12091C0.75881 3.483 0 5.31452 0 7.24059C0 9.16667 0.75881 10.9988 2.12091 12.3608C3.483 13.7229 5.31452 14.4818 7.24116 14.4818C8.89266 14.4818 10.4746 13.9235 11.7507 12.906L12.4474 13.6027C12.3825 13.7788 12.3495 13.9645 12.3495 14.1496C12.3495 14.5513 12.5021 14.9534 12.8075 15.2588L18.0907 20.542C18.396 20.8473 18.7982 21 19.1998 21V20.9989C19.6026 20.9989 20.0048 20.8468 20.309 20.542L20.542 20.309C20.8473 20.0036 21 19.6014 21 19.1998C21 18.7982 20.8473 18.396 20.542 18.0907H20.5425ZM3.27621 11.2055C2.22117 10.1505 1.63383 8.73372 1.63383 7.24116C1.63383 5.74861 2.2206 4.33182 3.27621 3.27678C4.33182 2.22174 5.74804 1.6344 7.24059 1.6344C8.73315 1.6344 10.1499 2.22117 11.205 3.27678C12.26 4.33182 12.8474 5.74861 12.8474 7.24116C12.8474 8.73372 12.2606 10.1505 11.205 11.2055C10.1499 12.2606 8.73315 12.8479 7.24059 12.8479C5.74804 12.8479 4.33125 12.2612 3.27621 11.2055Z" fill="#68150A"/>
</svg>
