<svg viewBox="0 0 16 16" fill="none" xmlns="http://www.w3.org/2000/svg">
<g clip-path="url(#clip0_141_8)">
<path d="M11.6364 16H4.36364L4.06349 15.9692C1.97787 15.7076 0.292448 14.0221 0.030784 11.9442L0 11.6364C0 9.21212 0 6.78788 0 4.36364C0.130832 2.04714 2.06253 0.100048 4.39442 0H11.5979C13.9452 0.100048 15.9 2.06253 16 4.40212V11.6056C15.8923 13.9221 13.9606 15.8769 11.6364 16ZM4.64839 1.23136C2.77056 1.20827 1.20827 2.79365 1.23136 4.66378V11.3208C1.20827 13.1063 2.62434 14.6455 4.40981 14.7532H11.5979C13.3757 14.6455 14.7994 13.0986 14.7763 11.3208V4.67148C14.8071 2.77826 13.214 1.19288 11.3208 1.22367H4.64839V1.23136Z" fill="#68150A"/>
<path d="M12.3061 7.99629C12.3061 10.3744 10.3744 12.3061 7.99629 12.3061C5.61822 12.3061 3.68652 10.3744 3.68652 7.99629C3.68652 5.61822 5.61822 3.68652 7.99629 3.68652C10.3744 3.68652 12.3061 5.61822 12.3061 7.99629ZM11.0747 7.99629C11.0747 6.29547 9.6971 4.91788 7.99629 4.91788C6.29547 4.91788 4.91788 6.29547 4.91788 7.99629C4.91788 9.6971 6.29547 11.0747 7.99629 11.0747C9.6971 11.0747 11.0747 9.6971 11.0747 7.99629Z" fill="#68150A"/>
<path d="M12.614 4.30993C13.124 4.30993 13.5375 3.89646 13.5375 3.38641C13.5375 2.87637 13.124 2.46289 12.614 2.46289C12.1039 2.46289 11.6904 2.87637 11.6904 3.38641C11.6904 3.89646 12.1039 4.30993 12.614 4.30993Z" fill="#68150A"/>
</g>
<defs>
<clipPath id="clip0_141_8">
<rect width="16" height="16" fill="white"/>
</clipPath>
</defs>
</svg>
