<svg  viewBox="0 0 16 16" fill="none" xmlns="http://www.w3.org/2000/svg">
<g clip-path="url(#clip0_142_19)">
<path d="M0.959524 1.03088C1.68219 0.29391 2.4356 0.0849132 3.46251 0.0372858C6.45261 0.132227 9.51548 -0.0842895 12.4971 0.0391658C15.0155 0.143508 15.9762 1.55854 15.996 3.97C16.0129 6.0374 15.9721 8.10857 15.9621 10.1741C15.9524 12.1556 16.3733 14.4433 14.2906 15.5544C13.7345 15.8512 13.1238 15.9326 12.4987 15.9577C9.38814 16.0827 6.1722 15.8872 3.05633 15.9248C0.841589 15.6688 0.0963374 14.2472 0.02796 12.1823C-0.0617461 9.47316 0.099474 6.71547 0.02796 4.00102C0.0608941 2.83947 0.111707 1.89538 0.959524 1.03088ZM5.47557 4.37953C5.47557 3.76539 4.97717 3.2678 4.36271 3.2678C3.74826 3.2678 3.24985 3.7657 3.24985 4.37953C3.24985 4.99336 3.74826 5.49125 4.36271 5.49125C4.97717 5.49125 5.47557 4.99336 5.47557 4.37953ZM12.764 12.7917V8.45199C12.764 8.19912 12.4407 7.48941 12.2879 7.26694C12.016 6.87057 11.4385 6.52088 10.9705 6.42093C9.92292 6.19721 8.92173 6.55598 8.24705 7.37128V6.4626H6.4592V12.792H8.34115V9.32965C8.34115 9.29487 8.39792 9.04671 8.41298 8.99406C8.79438 7.66676 10.8818 7.87075 10.8818 9.23565V12.792H12.7637L12.764 12.7917ZM5.33035 6.46229H3.38567V12.7917H5.33035V6.46229Z" fill="#68150A"/>
</g>
<defs>
<clipPath id="clip0_142_19">
<rect width="16" height="16" fill="white"/>
</clipPath>
</defs>
</svg>
