<svg  viewBox="0 0 84 61" fill="none" xmlns="http://www.w3.org/2000/svg">
<g clip-path="url(#clip0_152_30)">
<path d="M74.4512 28.8167L84.0005 30.2432L74.4512 31.6698V28.8167Z" fill="currentColor"/>
<path d="M9.56338 31.6698L0 30.2432L9.56338 28.8167V31.6698Z" fill="currentColor"/>
<path d="M49.7464 41.9553C54.5633 50.0012 51.2535 61.0713 41.9155 60.9857C32.5493 61.0713 29.2253 50.0012 34.0563 41.9553L36.9859 42.9397C29.8169 45.2507 31.4648 58.475 41.9155 58.8744C52.338 58.475 53.9859 45.265 46.8169 42.9397L49.7464 41.9553Z" fill="currentColor"/>
<path d="M45.7887 34.5943C43.6197 34.5943 42.9436 35.4645 42.9436 36.3775H42.5493V30.928H42.9436C42.9436 31.8267 43.6197 32.7112 45.7887 32.7112H50.1408C54.3802 40.7 51 51.1282 41.9155 51.0711C32.5493 51.1282 29.2253 40.0865 34.0563 32.0122L36.9859 33.025C29.8169 35.3361 31.4648 48.5603 41.9155 48.9313C50.8591 48.6174 53.3521 38.8454 49.3662 34.6085H45.8028L45.7887 34.5943Z" fill="currentColor"/>
<path d="M34.5768 19.0304C29.7599 10.9846 33.0698 -0.0855889 42.4219 5.07094e-06C51.7881 -0.0855889 55.1121 10.9846 50.2811 19.0304L47.3515 18.0461C54.5205 15.735 52.8726 2.51076 42.4219 2.11132C31.9994 2.51076 30.3515 15.7208 37.5205 18.0461L34.5909 19.0304H34.5768Z" fill="currentColor"/>
<path d="M38.5348 26.4058C40.7039 26.4058 41.3799 25.5356 41.3799 24.6226H41.7743V30.0721H41.3799C41.3799 29.1733 40.7039 28.2889 38.5348 28.2889H34.1827C29.9433 20.3001 33.3236 9.87188 42.4081 9.92894C51.7743 9.87188 55.0982 20.9135 50.2672 28.9879L47.3377 27.975C54.5067 25.664 52.8588 12.4397 42.4081 12.0688C33.4644 12.3826 30.9715 22.1546 34.9574 26.3915H38.5208L38.5348 26.4058Z" fill="currentColor"/>
<path d="M30.8869 38.2177C22.9432 43.0966 12.0136 39.7441 12.0981 30.286C12.0136 20.7993 22.9432 17.4326 30.8869 22.3257L29.915 25.293C27.6334 18.0318 14.577 19.7009 14.1826 30.286C14.577 40.8426 27.6193 42.5117 29.915 35.2504L30.8869 38.2177Z" fill="currentColor"/>
<path d="M38.1546 34.1948C38.1546 31.9979 37.2954 31.3131 36.394 31.3131V30.9137H41.7743V31.3131C40.8869 31.3131 40.0137 31.9979 40.0137 34.1948V38.6029C32.1264 42.8968 21.8306 39.4731 21.8869 30.2717C21.8306 20.785 32.732 17.4183 40.7038 22.3115L39.7038 25.2787C37.4222 18.0175 24.3658 19.6866 23.9996 30.2717C24.3095 39.3304 33.9574 41.8554 38.1405 37.8182V34.209L38.1546 34.1948Z" fill="currentColor"/>
<path d="M54.422 35.7212C56.7037 42.9824 69.7601 41.3133 70.1544 30.7567C69.7601 20.1716 56.7178 18.5025 54.422 25.7637L53.4502 22.7965C61.3939 17.9176 72.3234 21.2701 72.2389 30.7567C72.3234 40.2149 61.3939 43.5816 53.4502 38.6884L54.422 35.7212Z" fill="currentColor "/>
<path d="M46.1822 26.7909C46.1822 28.9878 47.0414 29.6726 47.9428 29.6726V30.072H42.5625V29.6726C43.4498 29.6726 44.3231 28.9878 44.3231 26.7909V22.3828C52.2104 18.0888 62.5062 21.5126 62.4498 30.714C62.5062 40.2006 51.6048 43.5673 43.6329 38.6742L44.6329 35.7069C46.9146 42.9682 59.971 41.2991 60.3371 30.714C60.0273 21.6553 50.3794 19.1302 46.1963 23.1674V26.7766L46.1822 26.7909Z" fill="currentColor"/>
</g>
<defs>
<clipPath id="clip0_152_30">
<rect width="84" height="61" fill="white"/>
</clipPath>
</defs>
</svg>
