<svg width="22" height="21" viewBox="0 0 22 21" fill="none" xmlns="http://www.w3.org/2000/svg">
<path d="M20.7678 4.86291C17.7269 7.63415 14.9956 10.7581 11.9711 13.5467C11.535 13.9488 11.1681 14.3097 10.5219 14.0107C7.31429 10.9274 4.17654 7.75245 0.987639 4.6426C0.759939 4.25353 1.23514 3.63113 1.67789 3.63547L20.2151 3.6333C20.8679 3.65555 21.3123 4.3957 20.7678 4.86291Z" fill="#68150A"/>
<path d="M12.0794 14.739L15.4806 11.392L15.5846 11.3448L20.9806 16.6594C21.0967 17.1841 20.7766 17.5943 20.2535 17.6763L1.73062 17.6909C1.24992 17.5867 0.873166 17.2601 0.939166 16.7429C0.967766 16.5204 1.06677 16.5649 1.18337 16.4439C2.86197 14.7021 4.65717 13.0633 6.35997 11.3442C7.62167 12.4235 8.70792 13.7405 9.99327 14.8025C10.6731 15.2008 11.4205 15.1503 12.0794 14.7384V14.739Z" fill="#68150A"/>
<path d="M21.0103 15.3021L16.2842 10.655L21.0103 5.96875V15.3021Z" fill="#68150A"/>
<path d="M0.93457 15.3021V5.96875L5.66072 10.6159L0.93457 15.3021Z" fill="#68150A"/>
</svg>
