<svg width="20" height="20" viewBox="0 0 20 20" fill="none" xmlns="http://www.w3.org/2000/svg">
<g clip-path="url(#clip0_134_20)">
<path d="M13.0548 13.5632C13.6264 13.0627 13.8987 12.6315 14.7899 12.7196C15.4046 12.7802 18.2695 13.5854 18.8553 13.8423C19.9264 14.3132 20.2311 16.3636 19.8313 17.3323C19.2476 18.7463 17.3669 19.8549 15.8752 19.9767C10.2203 20.4382 3.2705 14.0865 1.08985 9.2384C-0.184841 6.40567 -0.97756 1.91877 2.44947 0.255183C3.46261 -0.236559 5.55294 -0.0448404 6.0949 1.08126C6.38341 1.68063 7.09457 4.38959 7.1977 5.09323C7.40532 6.51195 6.27893 6.98957 5.51182 7.95355C5.44846 8.10289 5.44239 8.28317 5.45924 8.44192C5.49834 8.81191 6.39487 9.90908 6.67664 10.2548C7.63316 11.4294 9.90144 13.7509 11.2354 14.3825C12.0524 14.7693 12.4906 14.0576 13.0548 13.5625V13.5632Z" fill="#68150A"/>
</g>
<defs>
<clipPath id="clip0_134_20">
<rect width="20" height="20" fill="white"/>
</clipPath>
</defs>
</svg>
