<svg viewBox="0 0 16 16" fill="none" xmlns="http://www.w3.org/2000/svg">
<g clip-path="url(#clip0_141_16)">
<path d="M9.05811 10.2245H10.8851L11.1553 8.0635C11.0949 7.9679 9.65437 7.99346 9.41576 7.99847C9.33769 8.00013 9.05811 8.10074 9.05811 7.97346V6.52836C9.05811 6.28325 9.31887 5.70465 9.52814 5.55514C9.56745 5.52735 9.89409 5.33337 9.91624 5.33337H11.2726V3.49921C10.1521 3.25244 8.59693 3.16573 7.66074 3.94219C7.26821 4.26789 6.73285 5.30003 6.73285 5.80581V7.97346C6.73285 7.9829 6.67693 8.0396 6.65202 8.04349L4.82004 8.01458C4.79569 8.01848 4.73921 8.07517 4.73921 8.08462V10.1411C4.73921 10.1472 4.81617 10.2245 4.82226 10.2245H6.73229V15.8659C6.73229 15.927 6.59721 15.9454 6.54129 15.9521C5.61229 16.0616 2.85077 15.9837 2.02752 15.6425C0.534924 15.0239 0.158453 13.6999 0.0870343 12.1998C-0.0342114 9.64199 -0.0236924 6.47556 0.0870343 3.91385C0.146827 2.531 0.389872 1.29489 1.65658 0.542879C2.41617 0.0921202 3.00136 0.154926 3.82904 0.111018C6.50697 -0.0312689 9.56745 -0.0429408 12.2426 0.108239C13.0559 0.15437 13.5663 0.108239 14.3198 0.523982C15.7 1.28488 15.8728 2.64049 15.9259 4.08059C16.0184 6.60284 16.0317 9.57084 15.9259 12.0886C15.8141 14.746 14.7993 15.8331 12.1335 15.9515C11.354 15.986 9.98987 16.0393 9.24967 15.9515C9.19375 15.9448 9.05866 15.9259 9.05866 15.8654V10.2239L9.05811 10.2245Z" fill="#68150A"/>
</g>
<defs>
<clipPath id="clip0_141_16">
<rect width="16" height="16" fill="white"/>
</clipPath>
</defs>
</svg>
