<svg  viewBox="0 0 212 16" fill="none" xmlns="http://www.w3.org/2000/svg">
<g clip-path="url(#clip0_152_17)">
<path d="M14.4023 14.2568C8.32431 18.0734 -0.0708453 15.4495 0.000451102 8.07336C-0.0708453 0.678865 8.32431 -1.94499 14.4023 1.87153L13.6537 4.18345C11.907 -1.46792 1.90763 -0.18352 1.60462 8.07336C1.90763 16.3119 11.907 17.5963 13.6537 11.9449L14.4023 14.2568Z" fill="currentColor"/>
<path d="M25.5062 0.183472C29.6948 0.183472 33.0814 3.72476 33.0814 8.09173C33.0814 12.4587 29.7126 16.0183 25.5062 16.0183C21.2997 16.0183 17.9131 12.477 17.9131 8.09173C17.9131 3.70641 21.3175 0.183472 25.5062 0.183472ZM25.5062 0.770628C22.2087 0.770628 19.5351 4.05503 19.5351 8.07338C19.5351 12.0917 22.2087 15.3945 25.5062 15.3945C28.8036 15.3945 31.4772 12.1101 31.4772 8.07338C31.4772 4.03668 28.8036 0.770628 25.5062 0.770628Z" fill="currentColor"/>
<path d="M36.165 0.0367432H43.1699C45.3266 0.0367432 47.109 1.87161 47.109 4.09179C47.109 6.69729 45.0593 8.80739 42.5282 8.80739H42.5104L45.7009 13.2478H45.7188L46.2713 14.0367C47.216 15.1193 48.2854 15.4679 49.0519 15.4679V15.7799H47.2338C46.1644 15.7799 45.7188 15.7065 45.3088 15.156L40.728 8.78904H38.8743V13.2111C38.8743 14.9542 39.213 15.4496 40.1576 15.4496V15.7615H36.165V15.4496C37.0384 15.4496 37.4127 15.0092 37.4484 13.6147V2.18353C37.4127 0.789037 37.0384 0.34867 36.165 0.34867V0.0367432ZM38.8921 8.12849H42.0113C43.9542 8.00004 45.5405 6.25693 45.5405 4.14683C45.5405 2.27528 44.0789 0.733991 42.3144 0.733991H38.8921V8.12849Z" fill="currentColor"/>
<path d="M59.7288 0.183472C63.9175 0.183472 67.3041 3.72476 67.3041 8.09173C67.3041 12.4587 63.9353 16.0183 59.7288 16.0183C55.5223 16.0183 52.1357 12.477 52.1357 8.09173C52.1357 3.70641 55.5401 0.183472 59.7288 0.183472ZM59.7288 0.770628C56.4314 0.770628 53.7577 4.05503 53.7577 8.07338C53.7577 12.0917 56.4314 15.3945 59.7288 15.3945C63.0263 15.3945 65.6999 12.1101 65.6999 8.07338C65.6999 4.03668 63.0263 0.770628 59.7288 0.770628Z" fill="currentColor"/>
<path d="M70.3877 0.0367432H72.8652L82.419 13.3028V2.60555C82.419 0.862431 82.0803 0.367018 81.1178 0.367018V0.0367432H84.2905V0.34867C83.4706 0.34867 83.1141 0.715642 83.025 1.88995V15.7799H82.419L72.277 1.72482V13.945C72.384 15.1193 72.7405 15.4863 73.5426 15.4863V15.7982H70.4055V15.4863C71.3502 15.4863 71.6889 14.9725 71.6889 13.2478V1.3395C71.368 0.789037 70.9402 0.34867 70.3877 0.34867V0.0367432Z" fill="currentColor"/>
<path d="M89.2634 13.3761C89.2634 13.3761 89.299 13.266 89.299 13.2293L93.3451 1.37611L93.7907 0.0550078V0.0183105L93.8976 0.0550078H94.3611L99.334 13.2293V13.3027L99.6726 14.1468C99.9756 14.789 100.439 15.4862 101.045 15.4862V15.7981H97.0525V15.4862C97.9437 15.4862 98.425 15.1192 97.9437 13.5963L96.6247 10.0917H91.0101L89.9407 13.2293V13.266L89.8159 13.5779C89.3525 15.1009 89.8159 15.4679 90.6893 15.4679V15.7798H87.5879V15.4679C88.3365 15.4679 88.8891 14.3853 89.1564 13.6697L89.2634 13.3761ZM93.6837 2.23849L91.224 9.4495H96.393L93.6837 2.23849Z" fill="currentColor"/>
<path d="M110.474 0.0367432C114.663 0.0367432 118.103 3.57803 118.103 7.88995C118.103 12.2019 114.663 15.7615 110.474 15.7615H104.574V15.4496C105.43 15.4496 105.786 15.0092 105.858 13.6147V2.18353C105.786 0.789037 105.43 0.34867 104.574 0.34867V0.0367432H110.474ZM109.547 15.156C113.308 15.156 116.392 11.9817 116.392 8.11014V7.68812C116.392 3.81656 113.308 0.642248 109.547 0.642248H107.266V15.1377H109.547V15.156Z" fill="currentColor"/>
<path d="M128.78 0.183472C132.968 0.183472 136.355 3.72476 136.355 8.09173C136.355 12.4587 132.986 16.0183 128.78 16.0183C124.573 16.0183 121.187 12.477 121.187 8.09173C121.187 3.70641 124.591 0.183472 128.78 0.183472ZM128.78 0.770628C125.482 0.770628 122.809 4.05503 122.809 8.07338C122.809 12.0917 125.482 15.3945 128.78 15.3945C132.077 15.3945 134.751 12.1101 134.751 8.07338C134.751 4.03668 132.077 0.770628 128.78 0.770628Z" fill="currentColor"/>
<path d="M160.541 11.1376C160.541 9.41281 159.882 8.89905 159.205 8.89905V8.58712H163.322V8.89905C162.645 8.89905 161.967 9.43116 161.967 11.1376V14.5688C155.925 17.9082 148.029 15.2477 148.065 8.07336C148.029 0.678865 156.388 -1.94499 162.502 1.87153L161.736 4.18345C159.989 -1.46792 149.972 -0.18352 149.704 8.07336C149.936 15.1376 157.333 17.1009 160.541 13.9449V11.1192V11.1376Z" fill="currentColor"/>
<path d="M173.999 0.183472C178.188 0.183472 181.575 3.72476 181.575 8.09173C181.575 12.4587 178.206 16.0183 173.999 16.0183C169.793 16.0183 166.406 12.477 166.406 8.09173C166.406 3.70641 169.811 0.183472 173.999 0.183472ZM173.999 0.770628C170.702 0.770628 168.028 4.05503 168.028 8.07338C168.028 12.0917 170.702 15.3945 173.999 15.3945C177.297 15.3945 179.97 12.1101 179.97 8.07338C179.97 4.03668 177.297 0.770628 173.999 0.770628Z" fill="currentColor"/>
<path d="M187.367 15.156H192.055C193.749 15.156 194.23 14.2386 194.23 13.2661H194.533V15.7799H184.658V15.4679C185.532 15.4679 185.906 15.0276 185.942 13.6331V2.18353C185.906 0.789037 185.532 0.34867 184.658 0.34867V0.0367432H188.651V0.34867C187.706 0.34867 187.367 0.862431 187.367 2.5872V15.156Z" fill="currentColor"/>
<path d="M204.371 0.0367432C208.56 0.0367432 212 3.57803 212 7.88995C212 12.2019 208.56 15.7615 204.371 15.7615H198.472V15.4496C199.327 15.4496 199.684 15.0092 199.755 13.6147V2.18353C199.684 0.789037 199.327 0.34867 198.472 0.34867V0.0367432H204.371ZM203.445 15.156C207.205 15.156 210.289 11.9817 210.289 8.11014V7.68812C210.289 3.81656 207.205 0.642248 203.445 0.642248H201.163V15.1377H203.445V15.156Z" fill="currentColor"/>
</g>
<defs>
<clipPath id="clip0_152_17">
<rect width="212" height="16" fill="white"/>
</clipPath>
</defs>
</svg>
